<svg width="34" height="36" viewBox="0 0 34 36" fill="none" xmlns="http://www.w3.org/2000/svg">
<mask id="path-1-outside-1_1208_102" maskUnits="userSpaceOnUse" x="-0.601562" y="-0.49707" width="35" height="36" fill="black">
<rect fill="white" x="-0.601562" y="-0.49707" width="35" height="36"/>
<path d="M0.398438 16.8142C0.842036 16.2218 1.46454 16.4708 2.00618 16.4761C2.55026 16.4787 2.663 16.3136 2.65564 15.7291C2.60663 12.0202 2.61888 8.30869 2.58702 4.5972C2.57967 3.78727 2.962 3.64049 3.61882 3.64573C7.57444 3.68243 11.4761 3.28402 15.2038 1.74805C16.1376 1.36799 17.0224 0.516126 17.939 0.50302C18.8213 0.492536 19.6619 1.39682 20.5858 1.76902C24.0611 3.16345 27.681 3.60379 31.3572 3.65097C33.3595 3.67719 33.1929 3.47274 33.1904 5.6535C33.1904 8.75166 33.2786 11.8524 33.1708 14.9453C32.9649 20.835 31.3155 26.1375 27.2251 30.3155C24.6763 32.9183 21.5662 34.3206 18.1228 34.9497C17.7037 35.0257 17.3067 34.8946 16.9121 34.8055C12.7849 33.8829 9.30962 31.8017 6.7191 28.1741C6.65293 28.0824 6.60146 27.9775 6.47647 27.7678C6.24119 28.3628 6.34903 28.8241 6.32697 29.2645C6.30737 29.6655 6.18237 29.9696 5.76819 29.9722C4.12859 29.98 2.49144 29.9722 0.851839 29.9564C0.699888 29.9538 0.550388 29.849 0.398438 29.7939C0.398438 25.4665 0.398438 21.1416 0.398438 16.8142ZM7.87344 27.739C8.06951 28.0404 8.11852 28.1348 8.1847 28.216C10.584 31.1884 13.6549 32.8895 17.2135 33.6548C17.5297 33.723 17.8336 33.8252 18.1791 33.7518C20.2868 33.3167 22.3014 32.6143 24.1273 31.3876C28.9456 28.1479 31.1195 23.1887 31.8572 17.4013C32.3645 13.4251 31.9724 9.40431 32.0679 5.4045C32.0777 4.9825 31.9282 4.85931 31.5459 4.85144C30.5092 4.83047 29.4701 4.79902 28.4358 4.7099C24.9042 4.40848 21.4485 3.76368 18.2845 1.9289C17.9733 1.74805 17.7478 1.7795 17.4635 1.95774C16.6596 2.45575 15.7994 2.82532 14.9196 3.15034C11.5766 4.38751 8.10872 4.77805 4.60159 4.82785C3.90801 4.83834 3.66783 4.98774 3.68009 5.7898C3.7291 8.71234 3.69969 11.6349 3.69969 14.5574C3.69969 16.4289 3.70214 16.4289 5.40056 16.4603C5.42752 16.4603 5.45448 16.463 5.48144 16.4603C5.99366 16.4236 6.35883 16.5888 6.32207 17.2257C6.30001 17.6294 6.49118 17.6975 6.81714 17.7185C7.26074 17.7473 7.5916 17.5743 7.92736 17.2834C9.29002 16.0986 9.92723 14.3923 10.7973 12.8485C11.7531 11.1552 12.307 9.37548 12.204 7.36771C12.155 6.40314 12.6942 5.70593 13.4907 5.47003C14.2799 5.23675 15.0421 5.56963 15.5102 6.40052C15.7185 6.77272 15.895 7.17637 16.0224 7.58788C16.7209 9.84466 16.743 12.125 16.091 14.3923C15.9244 14.9742 16.0151 15.0869 16.5567 15.0764C18.2502 15.0476 19.9437 15.0712 21.6397 15.0633C22.5735 15.0581 23.3014 15.4434 23.6935 16.3634C24.0832 17.2729 23.9508 18.1457 23.2867 18.8639C23.044 19.126 23.0636 19.3069 23.1935 19.6109C23.6126 20.5807 23.495 21.4955 22.794 22.274C22.5906 22.4994 22.5784 22.6514 22.6887 22.945C23.1813 24.2346 23.0097 25.0392 22.0686 25.9095C21.8554 26.106 21.7867 26.2266 21.8652 26.5438C22.2941 28.3051 21.4485 29.4663 19.7428 29.4742C17.1743 29.4873 14.6058 29.4715 12.0374 29.4846C11.5325 29.4873 11.0791 29.3877 10.6257 29.1387C9.78753 28.6773 8.92484 28.2711 7.87344 27.739ZM15.8215 28.2842C17.1326 28.2842 18.4438 28.2816 19.755 28.2842C20.3702 28.2842 20.875 28.0824 20.8824 27.3301C20.8898 26.5359 20.3677 26.3131 19.7183 26.3131C19.4462 26.3131 19.1717 26.3105 18.8997 26.3105C18.5321 26.3105 18.2331 26.1925 18.2355 25.7338C18.238 25.2751 18.5443 25.1572 18.9046 25.1493C19.559 25.1362 20.2158 25.1572 20.8701 25.1231C21.4853 25.0917 21.8407 24.6802 21.8407 24.0485C21.8407 23.3801 21.4927 22.9555 20.8211 22.9424C20.2746 22.9319 19.7281 22.9292 19.1815 22.9397C18.7649 22.9476 18.3532 22.8742 18.3409 22.3474C18.3286 21.8205 18.7257 21.7209 19.1521 21.7288C19.8065 21.7419 20.4633 21.7393 21.1177 21.7288C21.8725 21.7157 22.3284 21.2884 22.3259 20.6227C22.3235 19.9622 21.8725 19.5454 21.103 19.5192C20.5564 19.5008 20.0099 19.5166 19.4634 19.5087C19.0957 19.5035 18.7894 19.3593 18.8016 18.9163C18.8139 18.4786 19.1203 18.3502 19.4903 18.3528C20.1741 18.3554 20.8554 18.3633 21.5392 18.3475C22.3333 18.3292 22.7916 17.9282 22.7867 17.2834C22.7818 16.6281 22.3455 16.2638 21.5245 16.2611C19.5026 16.2533 17.4831 16.2638 15.4612 16.2559C14.4147 16.2533 14.2676 15.965 14.6941 14.9296C15.7283 12.4212 15.7185 9.89184 14.7578 7.36509C14.5936 6.93261 14.3657 6.4844 13.7971 6.62594C13.2481 6.76223 13.3045 7.24976 13.3094 7.68486C13.3339 9.16579 13.1452 10.6048 12.4981 11.9311C11.8291 13.3019 11.1208 14.6518 10.4027 15.9938C9.91007 16.9164 9.21894 17.6634 8.45674 18.3397C8.01804 18.7276 7.55974 19.0002 6.96909 18.9058C6.47892 18.8272 6.30492 19.0264 6.31227 19.5768C6.33923 21.7078 6.33923 23.8414 6.31227 25.975C6.30492 26.5333 6.49363 26.6617 6.97644 26.6538C7.62101 26.646 8.28763 26.4992 8.89298 26.9133C10.6625 28.1217 12.5986 28.5227 14.6696 28.2894C15.0519 28.2475 15.4391 28.2842 15.8215 28.2842ZM1.51846 23.2149C1.51846 24.8505 1.53072 26.4887 1.51111 28.1243C1.50621 28.5856 1.59199 28.8241 2.0895 28.8032C2.93504 28.7665 3.78302 28.7796 4.63101 28.7979C5.02559 28.8058 5.23146 28.7062 5.229 28.2213C5.21675 24.8898 5.21675 21.5584 5.229 18.227C5.23146 17.7473 5.04519 17.632 4.64081 17.6425C3.82223 17.6634 2.99876 17.6844 2.18264 17.6372C1.6214 17.6058 1.49886 17.8469 1.50866 18.3947C1.53807 20.0015 1.51846 21.6082 1.51846 23.2149Z"/>
</mask>
<path d="M0.398438 16.8142C0.842036 16.2218 1.46454 16.4708 2.00618 16.4761C2.55026 16.4787 2.663 16.3136 2.65564 15.7291C2.60663 12.0202 2.61888 8.30869 2.58702 4.5972C2.57967 3.78727 2.962 3.64049 3.61882 3.64573C7.57444 3.68243 11.4761 3.28402 15.2038 1.74805C16.1376 1.36799 17.0224 0.516126 17.939 0.50302C18.8213 0.492536 19.6619 1.39682 20.5858 1.76902C24.0611 3.16345 27.681 3.60379 31.3572 3.65097C33.3595 3.67719 33.1929 3.47274 33.1904 5.6535C33.1904 8.75166 33.2786 11.8524 33.1708 14.9453C32.9649 20.835 31.3155 26.1375 27.2251 30.3155C24.6763 32.9183 21.5662 34.3206 18.1228 34.9497C17.7037 35.0257 17.3067 34.8946 16.9121 34.8055C12.7849 33.8829 9.30962 31.8017 6.7191 28.1741C6.65293 28.0824 6.60146 27.9775 6.47647 27.7678C6.24119 28.3628 6.34903 28.8241 6.32697 29.2645C6.30737 29.6655 6.18237 29.9696 5.76819 29.9722C4.12859 29.98 2.49144 29.9722 0.851839 29.9564C0.699888 29.9538 0.550388 29.849 0.398438 29.7939C0.398438 25.4665 0.398438 21.1416 0.398438 16.8142ZM7.87344 27.739C8.06951 28.0404 8.11852 28.1348 8.1847 28.216C10.584 31.1884 13.6549 32.8895 17.2135 33.6548C17.5297 33.723 17.8336 33.8252 18.1791 33.7518C20.2868 33.3167 22.3014 32.6143 24.1273 31.3876C28.9456 28.1479 31.1195 23.1887 31.8572 17.4013C32.3645 13.4251 31.9724 9.40431 32.0679 5.4045C32.0777 4.9825 31.9282 4.85931 31.5459 4.85144C30.5092 4.83047 29.4701 4.79902 28.4358 4.7099C24.9042 4.40848 21.4485 3.76368 18.2845 1.9289C17.9733 1.74805 17.7478 1.7795 17.4635 1.95774C16.6596 2.45575 15.7994 2.82532 14.9196 3.15034C11.5766 4.38751 8.10872 4.77805 4.60159 4.82785C3.90801 4.83834 3.66783 4.98774 3.68009 5.7898C3.7291 8.71234 3.69969 11.6349 3.69969 14.5574C3.69969 16.4289 3.70214 16.4289 5.40056 16.4603C5.42752 16.4603 5.45448 16.463 5.48144 16.4603C5.99366 16.4236 6.35883 16.5888 6.32207 17.2257C6.30001 17.6294 6.49118 17.6975 6.81714 17.7185C7.26074 17.7473 7.5916 17.5743 7.92736 17.2834C9.29002 16.0986 9.92723 14.3923 10.7973 12.8485C11.7531 11.1552 12.307 9.37548 12.204 7.36771C12.155 6.40314 12.6942 5.70593 13.4907 5.47003C14.2799 5.23675 15.0421 5.56963 15.5102 6.40052C15.7185 6.77272 15.895 7.17637 16.0224 7.58788C16.7209 9.84466 16.743 12.125 16.091 14.3923C15.9244 14.9742 16.0151 15.0869 16.5567 15.0764C18.2502 15.0476 19.9437 15.0712 21.6397 15.0633C22.5735 15.0581 23.3014 15.4434 23.6935 16.3634C24.0832 17.2729 23.9508 18.1457 23.2867 18.8639C23.044 19.126 23.0636 19.3069 23.1935 19.6109C23.6126 20.5807 23.495 21.4955 22.794 22.274C22.5906 22.4994 22.5784 22.6514 22.6887 22.945C23.1813 24.2346 23.0097 25.0392 22.0686 25.9095C21.8554 26.106 21.7867 26.2266 21.8652 26.5438C22.2941 28.3051 21.4485 29.4663 19.7428 29.4742C17.1743 29.4873 14.6058 29.4715 12.0374 29.4846C11.5325 29.4873 11.0791 29.3877 10.6257 29.1387C9.78753 28.6773 8.92484 28.2711 7.87344 27.739ZM15.8215 28.2842C17.1326 28.2842 18.4438 28.2816 19.755 28.2842C20.3702 28.2842 20.875 28.0824 20.8824 27.3301C20.8898 26.5359 20.3677 26.3131 19.7183 26.3131C19.4462 26.3131 19.1717 26.3105 18.8997 26.3105C18.5321 26.3105 18.2331 26.1925 18.2355 25.7338C18.238 25.2751 18.5443 25.1572 18.9046 25.1493C19.559 25.1362 20.2158 25.1572 20.8701 25.1231C21.4853 25.0917 21.8407 24.6802 21.8407 24.0485C21.8407 23.3801 21.4927 22.9555 20.8211 22.9424C20.2746 22.9319 19.7281 22.9292 19.1815 22.9397C18.7649 22.9476 18.3532 22.8742 18.3409 22.3474C18.3286 21.8205 18.7257 21.7209 19.1521 21.7288C19.8065 21.7419 20.4633 21.7393 21.1177 21.7288C21.8725 21.7157 22.3284 21.2884 22.3259 20.6227C22.3235 19.9622 21.8725 19.5454 21.103 19.5192C20.5564 19.5008 20.0099 19.5166 19.4634 19.5087C19.0957 19.5035 18.7894 19.3593 18.8016 18.9163C18.8139 18.4786 19.1203 18.3502 19.4903 18.3528C20.1741 18.3554 20.8554 18.3633 21.5392 18.3475C22.3333 18.3292 22.7916 17.9282 22.7867 17.2834C22.7818 16.6281 22.3455 16.2638 21.5245 16.2611C19.5026 16.2533 17.4831 16.2638 15.4612 16.2559C14.4147 16.2533 14.2676 15.965 14.6941 14.9296C15.7283 12.4212 15.7185 9.89184 14.7578 7.36509C14.5936 6.93261 14.3657 6.4844 13.7971 6.62594C13.2481 6.76223 13.3045 7.24976 13.3094 7.68486C13.3339 9.16579 13.1452 10.6048 12.4981 11.9311C11.8291 13.3019 11.1208 14.6518 10.4027 15.9938C9.91007 16.9164 9.21894 17.6634 8.45674 18.3397C8.01804 18.7276 7.55974 19.0002 6.96909 18.9058C6.47892 18.8272 6.30492 19.0264 6.31227 19.5768C6.33923 21.7078 6.33923 23.8414 6.31227 25.975C6.30492 26.5333 6.49363 26.6617 6.97644 26.6538C7.62101 26.646 8.28763 26.4992 8.89298 26.9133C10.6625 28.1217 12.5986 28.5227 14.6696 28.2894C15.0519 28.2475 15.4391 28.2842 15.8215 28.2842ZM1.51846 23.2149C1.51846 24.8505 1.53072 26.4887 1.51111 28.1243C1.50621 28.5856 1.59199 28.8241 2.0895 28.8032C2.93504 28.7665 3.78302 28.7796 4.63101 28.7979C5.02559 28.8058 5.23146 28.7062 5.229 28.2213C5.21675 24.8898 5.21675 21.5584 5.229 18.227C5.23146 17.7473 5.04519 17.632 4.64081 17.6425C3.82223 17.6634 2.99876 17.6844 2.18264 17.6372C1.6214 17.6058 1.49886 17.8469 1.50866 18.3947C1.53807 20.0015 1.51846 21.6082 1.51846 23.2149Z" fill="white"/>
<path d="M0.398438 16.8142C0.842036 16.2218 1.46454 16.4708 2.00618 16.4761C2.55026 16.4787 2.663 16.3136 2.65564 15.7291C2.60663 12.0202 2.61888 8.30869 2.58702 4.5972C2.57967 3.78727 2.962 3.64049 3.61882 3.64573C7.57444 3.68243 11.4761 3.28402 15.2038 1.74805C16.1376 1.36799 17.0224 0.516126 17.939 0.50302C18.8213 0.492536 19.6619 1.39682 20.5858 1.76902C24.0611 3.16345 27.681 3.60379 31.3572 3.65097C33.3595 3.67719 33.1929 3.47274 33.1904 5.6535C33.1904 8.75166 33.2786 11.8524 33.1708 14.9453C32.9649 20.835 31.3155 26.1375 27.2251 30.3155C24.6763 32.9183 21.5662 34.3206 18.1228 34.9497C17.7037 35.0257 17.3067 34.8946 16.9121 34.8055C12.7849 33.8829 9.30962 31.8017 6.7191 28.1741C6.65293 28.0824 6.60146 27.9775 6.47647 27.7678C6.24119 28.3628 6.34903 28.8241 6.32697 29.2645C6.30737 29.6655 6.18237 29.9696 5.76819 29.9722C4.12859 29.98 2.49144 29.9722 0.851839 29.9564C0.699888 29.9538 0.550388 29.849 0.398438 29.7939C0.398438 25.4665 0.398438 21.1416 0.398438 16.8142ZM7.87344 27.739C8.06951 28.0404 8.11852 28.1348 8.1847 28.216C10.584 31.1884 13.6549 32.8895 17.2135 33.6548C17.5297 33.723 17.8336 33.8252 18.1791 33.7518C20.2868 33.3167 22.3014 32.6143 24.1273 31.3876C28.9456 28.1479 31.1195 23.1887 31.8572 17.4013C32.3645 13.4251 31.9724 9.40431 32.0679 5.4045C32.0777 4.9825 31.9282 4.85931 31.5459 4.85144C30.5092 4.83047 29.4701 4.79902 28.4358 4.7099C24.9042 4.40848 21.4485 3.76368 18.2845 1.9289C17.9733 1.74805 17.7478 1.7795 17.4635 1.95774C16.6596 2.45575 15.7994 2.82532 14.9196 3.15034C11.5766 4.38751 8.10872 4.77805 4.60159 4.82785C3.90801 4.83834 3.66783 4.98774 3.68009 5.7898C3.7291 8.71234 3.69969 11.6349 3.69969 14.5574C3.69969 16.4289 3.70214 16.4289 5.40056 16.4603C5.42752 16.4603 5.45448 16.463 5.48144 16.4603C5.99366 16.4236 6.35883 16.5888 6.32207 17.2257C6.30001 17.6294 6.49118 17.6975 6.81714 17.7185C7.26074 17.7473 7.5916 17.5743 7.92736 17.2834C9.29002 16.0986 9.92723 14.3923 10.7973 12.8485C11.7531 11.1552 12.307 9.37548 12.204 7.36771C12.155 6.40314 12.6942 5.70593 13.4907 5.47003C14.2799 5.23675 15.0421 5.56963 15.5102 6.40052C15.7185 6.77272 15.895 7.17637 16.0224 7.58788C16.7209 9.84466 16.743 12.125 16.091 14.3923C15.9244 14.9742 16.0151 15.0869 16.5567 15.0764C18.2502 15.0476 19.9437 15.0712 21.6397 15.0633C22.5735 15.0581 23.3014 15.4434 23.6935 16.3634C24.0832 17.2729 23.9508 18.1457 23.2867 18.8639C23.044 19.126 23.0636 19.3069 23.1935 19.6109C23.6126 20.5807 23.495 21.4955 22.794 22.274C22.5906 22.4994 22.5784 22.6514 22.6887 22.945C23.1813 24.2346 23.0097 25.0392 22.0686 25.9095C21.8554 26.106 21.7867 26.2266 21.8652 26.5438C22.2941 28.3051 21.4485 29.4663 19.7428 29.4742C17.1743 29.4873 14.6058 29.4715 12.0374 29.4846C11.5325 29.4873 11.0791 29.3877 10.6257 29.1387C9.78753 28.6773 8.92484 28.2711 7.87344 27.739ZM15.8215 28.2842C17.1326 28.2842 18.4438 28.2816 19.755 28.2842C20.3702 28.2842 20.875 28.0824 20.8824 27.3301C20.8898 26.5359 20.3677 26.3131 19.7183 26.3131C19.4462 26.3131 19.1717 26.3105 18.8997 26.3105C18.5321 26.3105 18.2331 26.1925 18.2355 25.7338C18.238 25.2751 18.5443 25.1572 18.9046 25.1493C19.559 25.1362 20.2158 25.1572 20.8701 25.1231C21.4853 25.0917 21.8407 24.6802 21.8407 24.0485C21.8407 23.3801 21.4927 22.9555 20.8211 22.9424C20.2746 22.9319 19.7281 22.9292 19.1815 22.9397C18.7649 22.9476 18.3532 22.8742 18.3409 22.3474C18.3286 21.8205 18.7257 21.7209 19.1521 21.7288C19.8065 21.7419 20.4633 21.7393 21.1177 21.7288C21.8725 21.7157 22.3284 21.2884 22.3259 20.6227C22.3235 19.9622 21.8725 19.5454 21.103 19.5192C20.5564 19.5008 20.0099 19.5166 19.4634 19.5087C19.0957 19.5035 18.7894 19.3593 18.8016 18.9163C18.8139 18.4786 19.1203 18.3502 19.4903 18.3528C20.1741 18.3554 20.8554 18.3633 21.5392 18.3475C22.3333 18.3292 22.7916 17.9282 22.7867 17.2834C22.7818 16.6281 22.3455 16.2638 21.5245 16.2611C19.5026 16.2533 17.4831 16.2638 15.4612 16.2559C14.4147 16.2533 14.2676 15.965 14.6941 14.9296C15.7283 12.4212 15.7185 9.89184 14.7578 7.36509C14.5936 6.93261 14.3657 6.4844 13.7971 6.62594C13.2481 6.76223 13.3045 7.24976 13.3094 7.68486C13.3339 9.16579 13.1452 10.6048 12.4981 11.9311C11.8291 13.3019 11.1208 14.6518 10.4027 15.9938C9.91007 16.9164 9.21894 17.6634 8.45674 18.3397C8.01804 18.7276 7.55974 19.0002 6.96909 18.9058C6.47892 18.8272 6.30492 19.0264 6.31227 19.5768C6.33923 21.7078 6.33923 23.8414 6.31227 25.975C6.30492 26.5333 6.49363 26.6617 6.97644 26.6538C7.62101 26.646 8.28763 26.4992 8.89298 26.9133C10.6625 28.1217 12.5986 28.5227 14.6696 28.2894C15.0519 28.2475 15.4391 28.2842 15.8215 28.2842ZM1.51846 23.2149C1.51846 24.8505 1.53072 26.4887 1.51111 28.1243C1.50621 28.5856 1.59199 28.8241 2.0895 28.8032C2.93504 28.7665 3.78302 28.7796 4.63101 28.7979C5.02559 28.8058 5.23146 28.7062 5.229 28.2213C5.21675 24.8898 5.21675 21.5584 5.229 18.227C5.23146 17.7473 5.04519 17.632 4.64081 17.6425C3.82223 17.6634 2.99876 17.6844 2.18264 17.6372C1.6214 17.6058 1.49886 17.8469 1.50866 18.3947C1.53807 20.0015 1.51846 21.6082 1.51846 23.2149Z" stroke="white" stroke-width="0.4" mask="url(#path-1-outside-1_1208_102)"/>
</svg>
